HIERARCHY
ROOT joint_Root
{
	OFFSET 0.0 0.0 0.0
	CHANNELS 6 Xposition Yposition Zposition Zrotation Xrotation Yrotation 
	JOINT Hips
	{
		OFFSET 4.5925 91.4895 -427.239
		CHANNELS 6 Xposition Yposition Zposition Zrotation Xrotation Yrotation 
		JOINT Spine
		{
			OFFSET 15.7357 0.0 0.0
			CHANNELS 6 Xposition Yposition Zposition Zrotation Xrotation Yrotation 
			JOINT Chest
			{
				OFFSET 8.98455 -0.406207 0.0
				CHANNELS 6 Xposition Yposition Zposition Zrotation Xrotation Yrotation 
				JOINT Neck
				{
					OFFSET 16.3773 0.0 0.0
					CHANNELS 6 Xposition Yposition Zposition Zrotation Xrotation Yrotation 
					JOINT Head
					{
						OFFSET 6.45672 0.0 0.0
						CHANNELS 6 Xposition Yposition Zposition Zrotation Xrotation Yrotation 
						End Site
						{
							OFFSET 0.0 0.0 0.0
						}
					}
				}
				JOINT Shoulder_L
				{
					OFFSET 12.9942 -0.242716 4.98039
					CHANNELS 6 Xposition Yposition Zposition Zrotation Xrotation Yrotation 
					JOINT UpperArm_L
					{
						OFFSET 5.34809 0.0 0.0
						CHANNELS 6 Xposition Yposition Zposition Zrotation Xrotation Yrotation 
						JOINT LowerArm_L
						{
							OFFSET 24.3286 1.87007e-05 0.0
							CHANNELS 6 Xposition Yposition Zposition Zrotation Xrotation Yrotation 
							JOINT Hand_L
							{
								OFFSET 22.2916 0.0 0.0
								CHANNELS 6 Xposition Yposition Zposition Zrotation Xrotation Yrotation 
								End Site
								{
									OFFSET 0.0 0.0 0.0
								}
							}
						}
					}
				}
				JOINT Shoulder_R
				{
					OFFSET 12.9945 -0.242716 -4.98039
					CHANNELS 6 Xposition Yposition Zposition Zrotation Xrotation Yrotation 
					JOINT UpperArm_R
					{
						OFFSET -5.34813 0.0 0.0
						CHANNELS 6 Xposition Yposition Zposition Zrotation Xrotation Yrotation 
						JOINT LowerArm_R
						{
							OFFSET -24.3289 0.000322201 0.0
							CHANNELS 6 Xposition Yposition Zposition Zrotation Xrotation Yrotation 
							JOINT Hand_R
							{
								OFFSET -22.2915 -0.000108084 0.0
								CHANNELS 6 Xposition Yposition Zposition Zrotation Xrotation Yrotation 
								End Site
								{
									OFFSET 0.0 0.0 0.0
								}
							}
						}
					}
				}
			}
		}
		JOINT UpperLeg_L
		{
			OFFSET -2.19248 -6.46944 0.0
			CHANNELS 6 Xposition Yposition Zposition Zrotation Xrotation Yrotation 
			JOINT LowerLeg_L
			{
				OFFSET 39.0811 0.0 -1.23785e-05
				CHANNELS 6 Xposition Yposition Zposition Zrotation Xrotation Yrotation 
				JOINT Foot_L
				{
					OFFSET 40.9854 0.0 -1.26872e-05
					CHANNELS 6 Xposition Yposition Zposition Zrotation Xrotation Yrotation 
					JOINT Toes_L
					{
						OFFSET 11.7543 0.0 0.0
						CHANNELS 6 Xposition Yposition Zposition Zrotation Xrotation Yrotation 
						End Site
						{
							OFFSET 0.0 0.0 0.0
						}
					}
				}
			}
		}
		JOINT UpperLeg_R
		{
			OFFSET -2.19251 6.46944 0.0
			CHANNELS 6 Xposition Yposition Zposition Zrotation Xrotation Yrotation 
			JOINT LowerLeg_R
			{
				OFFSET -39.0811 -0.00228153 -0.0401928
				CHANNELS 6 Xposition Yposition Zposition Zrotation Xrotation Yrotation 
				JOINT Foot_R
				{
					OFFSET -40.9854 0.0 0.0
					CHANNELS 6 Xposition Yposition Zposition Zrotation Xrotation Yrotation 
					JOINT Toes_R
					{
						OFFSET -11.7543 0.0 0.0
						CHANNELS 6 Xposition Yposition Zposition Zrotation Xrotation Yrotation 
						End Site
						{
							OFFSET 0.0 0.0 0.0
						}
					}
				}
			}
		}
	}
}
MOTION
Frames:	4
Frame Time:	0.0333333
0.000000 0.000000 0.000000 0.000000 0.000000 -0.000000 12.115600 89.860200 196.971000 67.626300 77.372000 22.492200 15.735700 0.000005 -0.000001 129.404000 82.313300 -130.189000 8.984550 -0.406207 -0.000000 4.231170 9.767910 -1.934620 16.377300 -0.000001 -0.000001 -1.481710 2.311170 -0.848150 6.456720 -0.000001 -0.000000 -3.483370 -0.744288 -1.398900 12.994200 -0.242716 4.980390 -85.896700 -9.756300 -67.054800 5.348090 -0.000007 -0.000001 -81.743600 44.406200 40.069300 24.328600 0.000019 0.000005 6.052100 0.813108 -82.376200 22.291600 -0.000001 0.000005 2.316550 5.513490 -7.086250 12.994500 -0.242716 -4.980390 90.247200 -1.599570 -81.214700 -5.348130 -0.000001 -0.000004 -42.133100 44.941500 -61.131100 -24.328900 0.000322 -0.000009 -9.798300 5.392650 -118.556000 -22.291500 -0.000108 -0.000004 19.526700 5.556040 -8.994030 -2.192480 -6.469440 -0.000000 179.855000 -12.552300 -32.192800 39.081100 -0.000007 -0.000012 0.011834 -0.021999 28.276500 40.985400 -0.000006 -0.000013 3.225780 -4.886680 -60.689900 11.754300 -0.000000 0.000003 -0.006675 -0.076854 -19.705200 -2.192510 6.469440 -0.000001 174.428000 22.454700 -176.827000 -39.081100 -0.002282 -0.040193 -0.046990 0.098905 26.955900 -40.985400 0.000008 0.000006 5.631660 19.281100 -71.010700 -11.754300 -0.000006 -0.000006 -1.513400 -1.639490 -23.443300
0.000000 0.000000 0.000000 0.000000 0.000000 -0.000000 17.035100 87.955600 196.784000 62.999800 75.823400 28.317800 15.735700 0.000005 -0.000001 126.847000 81.800000 -127.195000 8.984550 -0.406207 -0.000000 5.450990 9.819370 -1.164770 16.377300 -0.000001 -0.000001 -2.119390 4.013800 -1.395190 6.456720 -0.000001 -0.000000 -4.843570 1.139320 -2.684640 12.994200 -0.242716 4.980390 -86.400300 -8.326220 -66.518200 5.348090 -0.000007 -0.000001 -79.451800 40.397800 36.292100 24.328600 0.000019 0.000005 7.346600 1.029970 -82.063400 22.291600 -0.000001 0.000005 2.044660 5.496300 -6.386160 12.994500 -0.242716 -4.980390 90.105800 -0.765979 -82.146700 -5.348130 -0.000001 -0.000004 -39.490700 46.919400 -61.616700 -24.328900 0.000322 -0.000009 -10.559700 5.088010 -115.443000 -22.291500 -0.000108 -0.000004 18.755600 5.554420 -8.916580 -2.192480 -6.469440 -0.000000 179.097000 -17.234700 -32.414300 39.081100 -0.000007 -0.000012 0.044827 -0.112568 21.713700 40.985400 -0.000006 -0.000013 6.917600 -6.726580 -61.284600 11.754300 -0.000000 0.000003 -0.006554 -0.075795 -19.662000 -2.192510 6.469440 -0.000001 173.047000 21.320900 -173.595000 -39.081100 -0.002282 -0.040193 -0.081526 0.143297 30.624100 -40.985400 0.000008 0.000006 5.837580 19.778300 -74.373100 -11.754300 -0.000006 -0.000006 -0.871142 -0.983263 -24.568100
0.000000 0.000000 0.000000 0.000000 0.000000 -0.000000 22.168000 86.306600 196.311000 58.715900 76.301400 31.979800 15.735700 0.000005 -0.000001 124.056000 82.252000 -124.346000 8.984550 -0.406207 -0.000000 5.141010 8.666500 -0.969459 16.377300 -0.000001 -0.000001 -2.194720 5.989060 -1.288130 6.456720 -0.000001 -0.000000 -5.785120 4.945350 -4.320250 12.994200 -0.242716 4.980390 -88.113200 -4.534040 -67.382600 5.348090 -0.000007 -0.000001 -75.797500 35.608900 31.887900 24.328600 0.000019 0.000005 7.638570 1.266720 -80.638900 22.291600 -0.000001 0.000005 3.362470 5.499530 -6.512640 12.994500 -0.242716 -4.980390 89.673500 2.755130 -83.234500 -5.348130 -0.000001 -0.000004 -38.894200 49.857400 -55.898600 -24.328900 0.000322 -0.000009 -10.571400 4.038070 -110.669000 -22.291500 -0.000108 -0.000004 17.243100 5.561810 -9.282050 -2.192480 -6.469440 -0.000000 173.572000 -24.062600 -37.736700 39.081100 -0.000007 -0.000012 0.133188 -0.315293 22.900700 40.985400 -0.000006 -0.000013 15.160400 -10.921500 -57.005600 11.754300 -0.000000 0.000003 -0.005656 -0.067688 -19.331300 -2.192510 6.469440 -0.000001 172.562000 18.521300 -172.776000 -39.081100 -0.002282 -0.040193 -0.079725 0.121095 34.432900 -40.985400 0.000008 0.000006 4.736620 17.747800 -75.089600 -11.754300 -0.000006 -0.000006 -0.044759 -0.278551 -28.030000
0.000000 0.000000 0.000000 0.000000 0.000000 -0.000000 27.885000 85.179300 195.685000 52.832100 77.176200 35.943100 15.735700 0.000005 -0.000001 123.485000 83.322100 -123.818000 8.984550 -0.406207 -0.000000 3.418890 7.372580 -0.887166 16.377300 -0.000001 -0.000001 -2.235870 9.106040 -0.963727 6.456720 -0.000001 -0.000000 -5.737730 10.153200 -5.586770 12.994200 -0.242716 4.980390 -90.605800 1.512450 -68.167600 5.348090 -0.000007 -0.000001 -69.964700 32.566700 25.491900 24.328600 0.000019 0.000005 5.638580 1.148210 -78.521000 22.291600 -0.000001 0.000005 4.959530 5.524370 -7.546810 12.994500 -0.242716 -4.980390 89.218600 7.674000 -84.168000 -5.348130 -0.000001 -0.000004 -44.794100 52.367800 -40.676200 -24.328900 0.000322 -0.000009 -9.183180 2.051700 -102.479000 -22.291500 -0.000108 -0.000004 15.032200 5.584400 -10.460400 -2.192480 -6.469440 -0.000000 171.411000 -26.779700 -44.087900 39.081100 -0.000007 -0.000012 0.230251 -0.360492 32.567100 40.985400 -0.000006 -0.000013 15.630400 -9.088450 -49.563000 11.754300 -0.000000 0.000003 -0.006968 -0.079395 -19.808900 -2.192510 6.469440 -0.000001 172.715000 16.151500 -174.100000 -39.081100 -0.002282 -0.040193 -0.011093 0.017612 39.217600 -40.985400 0.000008 0.000006 3.671860 15.712200 -71.043000 -11.754300 -0.000006 -0.000006 -0.123586 -0.499666 -37.557700
